<svg xmlns="http://www.w3.org/2000/svg" viewBox="0 0 2033.72 2009.48">
    <defs>
        <style>.cls-1{fill:none;stroke:#fff;stroke-miterlimit:10;stroke-width:80px;}.cls-2{fill:#fff;}</style>
    </defs>
    <title>rarity_legendary</title>
    <g id="Ebene_2">
        <g id="Final">
            <g id="Legendary">
                <path class="cls-1"
                      d="M1070.84,1941.61l904.27-1273a100.73,100.73,0,0,0,1.7-114.21l-313-469.52A100.71,100.71,0,0,0,1580,40H453.73a100.73,100.73,0,0,0-83.82,44.86l-313,469.52a100.73,100.73,0,0,0,1.69,114.21l904.28,1273C989.28,1978.77,1044.44,1978.77,1070.84,1941.61Z"/>
                <path class="cls-2"
                      d="M1039.41,1585.6l659-927.67a54.19,54.19,0,0,0,.91-61.42l-231.8-347.73a54.18,54.18,0,0,0-45.08-24.12H611.31a54.19,54.19,0,0,0-45.08,24.12L334.43,596.51a54.19,54.19,0,0,0,.91,61.42l659,927.67A27.65,27.65,0,0,0,1039.41,1585.6Z"/>
            </g>
        </g>
    </g>
</svg>