<svg xmlns="http://www.w3.org/2000/svg" viewBox="0 0 1776.45 2006.24">
    <defs>
        <style>
            .cls-1,.cls-2{fill:none;stroke:#fff;stroke-miterlimit:10;}.cls-1{stroke-width:80px;}.cls-2{stroke-width:60px;}
        </style>
    </defs>
    <title>rarity_rare</title>
    <g id="Ebene_2">
        <g id="Final">
            <g id="Epic">
                <path class="cls-1"
                      d="M40,574.33v857.59a105.51,105.51,0,0,0,52.77,91.39L835.46,1952.1a105.54,105.54,0,0,0,105.53,0l742.7-428.79a105.53,105.53,0,0,0,52.76-91.39V574.33a105.53,105.53,0,0,0-52.76-91.4L941,54.14a105.54,105.54,0,0,0-105.53,0L92.77,482.93A105.52,105.52,0,0,0,40,574.33Z"/>
                <path class="cls-2"
                      d="M1148.17,475.12H628.28A77.76,77.76,0,0,0,560.94,514L301,964.24a77.76,77.76,0,0,0,0,77.76l260,450.24a77.76,77.76,0,0,0,67.34,38.88h519.89a77.78,77.78,0,0,0,67.35-38.88L1475.46,1042a77.76,77.76,0,0,0,0-77.76L1215.52,514A77.78,77.78,0,0,0,1148.17,475.12Z"/>
            </g>
        </g>
    </g>
</svg>